<?xml version="1.0" standalone="no"?>
<!DOCTYPE svg PUBLIC "-//W3C//DTD SVG 20010904//EN"
 "http://www.w3.org/TR/2001/REC-SVG-20010904/DTD/svg10.dtd">
<svg version="1.0" xmlns="http://www.w3.org/2000/svg"
 width="1382.000000pt" height="1382.000000pt" viewBox="0 0 1382.000000 1382.000000"
 preserveAspectRatio="xMidYMid meet">
<metadata>
Created by potrace 1.14, written by Peter Selinger 2001-2017
</metadata>
<g transform="translate(0.000000,1382.000000) scale(0.100000,-0.100000)"
fill="#000000" stroke="none">
<path d="M7430 8150 l0 -260 260 0 260 0 0 260 0 260 -260 0 -260 0 0 -260z"/>
<path d="M11435 8020 c-4 -6 -16 -8 -28 -5 -12 2 -16 2 -9 -1 16 -8 16 -28 -1
-21 -7 3 -19 -5 -27 -16 -12 -20 -12 -21 4 -8 14 12 16 12 10 -3 -3 -9 -13
-16 -21 -16 -8 0 -12 -4 -9 -9 3 -5 -1 -11 -9 -15 -8 -3 -15 -13 -15 -21 0
-10 -5 -13 -12 -9 -8 5 -9 2 -5 -9 7 -20 -8 -23 -17 -4 -3 6 -3 2 0 -10 3 -14
1 -23 -6 -23 -6 0 -9 -4 -6 -9 3 -5 -2 -11 -12 -13 -10 -3 -19 -13 -20 -22 -1
-9 -3 -22 -4 -30 -1 -8 -9 -13 -21 -11 -16 4 -17 2 -5 -12 9 -12 9 -15 1 -9
-8 4 -13 1 -13 -9 0 -9 -4 -13 -10 -10 -5 3 -11 -1 -11 -9 -3 -31 -4 -35 -19
-48 -12 -11 -12 -11 -1 5 9 11 9 17 3 17 -6 0 -16 -18 -22 -40 -6 -21 -20 -46
-32 -54 -12 -8 -18 -21 -15 -29 4 -11 -1 -14 -18 -12 -14 1 -22 -2 -19 -6 3
-5 -1 -9 -8 -9 -9 0 -9 -3 2 -10 12 -8 11 -11 -8 -16 -17 -5 -20 -10 -12 -19
8 -9 8 -15 0 -20 -5 -3 -10 0 -10 7 0 10 -3 9 -9 -2 -6 -8 -7 -18 -5 -22 3 -4
-2 -8 -10 -8 -9 0 -16 -5 -16 -11 0 -5 4 -7 10 -4 6 3 7 -1 4 -9 -3 -9 -10
-13 -15 -10 -5 3 -9 0 -9 -5 0 -6 -6 -10 -12 -9 -7 2 -12 -3 -10 -9 1 -7 -3
-13 -9 -13 -5 0 -7 -4 -4 -10 3 -5 0 -10 -7 -10 -11 0 -10 -2 0 -9 11 -7 10
-9 -3 -15 -9 -3 -13 -11 -9 -18 5 -7 2 -10 -7 -6 -8 2 -23 -4 -33 -15 -18 -19
-18 -20 -1 -14 15 6 16 5 5 -7 -6 -9 -17 -14 -23 -13 -7 1 -11 -4 -10 -10 2
-7 -1 -13 -6 -13 -5 0 -8 -8 -6 -17 3 -22 -22 -53 -44 -53 -13 0 -13 -2 -2 -9
9 -6 10 -11 2 -15 -6 -4 -11 -4 -11 0 0 4 -9 -1 -19 -10 -11 -10 -17 -24 -15
-31 3 -7 -2 -15 -10 -18 -9 -4 -16 -13 -16 -22 0 -8 -5 -15 -12 -15 -6 0 -8
-3 -5 -7 4 -3 -5 -15 -20 -25 -16 -10 -23 -18 -17 -18 5 0 15 5 22 12 19 19
14 3 -7 -20 -10 -12 -21 -18 -25 -14 -5 4 -6 -2 -4 -13 2 -15 -2 -19 -16 -17
-18 3 -18 2 -5 -14 8 -11 9 -15 2 -10 -12 7 -18 -5 -14 -27 1 -5 -2 -6 -6 -4
-5 2 -17 -5 -28 -16 -11 -11 -15 -17 -9 -14 6 3 11 0 11 -8 0 -8 -4 -12 -8 -9
-4 2 -15 -3 -24 -12 -13 -14 -14 -19 -3 -25 10 -7 10 -9 1 -9 -7 0 -13 -7 -13
-15 0 -13 187 -15 1619 -15 1589 0 1619 0 1624 19 3 14 1 18 -9 14 -8 -3 -14
0 -14 6 0 6 -7 8 -15 5 -9 -4 -18 1 -21 11 -5 13 -9 14 -15 3 -7 -10 -9 -9 -9
5 0 9 -6 16 -12 15 -7 -2 -12 3 -10 11 3 12 1 12 -14 0 -12 -9 -15 -9 -10 -1
4 7 1 12 -8 12 -9 0 -16 5 -16 11 0 8 -5 8 -15 -1 -13 -10 -15 -9 -15 11 0 19
-2 21 -10 9 -6 -10 -10 -11 -10 -2 0 6 -9 12 -20 12 -11 0 -20 5 -20 10 0 6
-7 10 -16 10 -9 0 -12 5 -8 13 5 7 0 6 -11 -3 -11 -9 -16 -10 -11 -2 6 11 -5
17 -26 13 -5 0 -8 3 -8 8 0 5 -9 11 -21 14 -13 4 -19 10 -14 19 3 7 -1 4 -9
-6 -15 -19 -16 -19 -16 -1 0 10 -3 16 -6 12 -3 -3 -16 3 -27 14 -14 13 -23 15
-28 8 -5 -8 -8 -8 -10 0 -3 7 -14 13 -26 14 -12 0 -21 6 -20 12 1 5 -7 10 -17
10 -10 0 -22 9 -26 19 -4 13 -9 16 -14 8 -5 -9 -11 -9 -26 0 -10 7 -16 16 -14
20 3 4 0 8 -6 8 -6 0 -8 5 -4 12 4 7 3 8 -5 4 -6 -4 -9 -13 -5 -19 3 -7 -4 -1
-15 12 -12 13 -21 20 -21 16 0 -5 -8 2 -19 13 -18 22 -38 31 -26 13 3 -5 0
-13 -6 -17 -7 -4 -9 -3 -6 3 3 5 -3 17 -14 26 -10 9 -19 12 -19 6 0 -5 -5 -7
-11 -4 -6 4 -8 13 -6 19 5 13 -20 15 -41 3 -8 -5 -10 -3 -6 6 3 8 -2 17 -11
21 -11 4 -14 2 -9 -7 5 -8 2 -8 -9 2 -9 7 -15 17 -12 21 3 5 1 11 -4 14 -5 4
-13 1 -17 -5 -5 -8 -3 -9 6 -4 9 6 11 4 5 -5 -6 -10 -12 -8 -27 9 -10 13 -18
18 -18 12 0 -6 -4 -11 -10 -11 -5 0 -9 3 -9 8 4 24 -2 35 -13 24 -8 -8 -15 -7
-27 6 -9 9 -23 17 -31 17 -8 0 -15 6 -15 13 0 14 -13 17 -23 6 -4 -4 -1 -4 7
1 10 6 12 4 6 -5 -6 -10 -12 -8 -26 8 -18 23 -35 30 -23 10 4 -7 3 -8 -4 -4
-7 4 -12 14 -12 23 0 13 -2 14 -17 2 -11 -10 -14 -10 -9 -1 4 7 1 12 -9 12 -9
0 -13 5 -10 10 3 6 -3 10 -14 10 -12 0 -21 5 -21 10 0 6 -9 10 -20 10 -11 0
-20 5 -20 11 0 5 -4 7 -10 4 -5 -3 -10 -1 -10 5 0 7 -7 9 -16 6 -11 -4 -18 1
-21 14 -3 11 -10 20 -15 20 -5 0 -7 -4 -4 -8 3 -5 -1 -9 -9 -9 -8 0 -12 4 -9
8 2 4 -5 13 -17 19 -17 10 -20 9 -13 -2 6 -11 5 -11 -9 1 -9 7 -14 18 -10 25
4 6 -2 4 -12 -4 -11 -9 -16 -10 -11 -2 4 7 1 12 -8 12 -9 0 -16 5 -16 11 0 8
-4 8 -14 0 -11 -9 -15 -7 -20 11 -5 19 -8 20 -16 8 -6 -10 -10 -11 -10 -2 0 6
-8 12 -17 12 -15 0 -16 2 -3 10 8 5 10 10 5 10 -6 0 -17 -6 -24 -12 -8 -7 -11
-8 -9 -3 3 6 0 15 -7 22 -11 10 -15 10 -19 0 -3 -7 -8 -2 -12 11 -5 17 -10 20
-20 11 -10 -8 -16 -6 -26 10 -9 15 -15 17 -26 9 -7 -6 -12 -7 -11 -2 4 21 -2
35 -11 29 -5 -3 -10 -1 -10 5 0 6 -4 8 -10 5 -5 -3 -10 -1 -10 4 0 6 -6 10
-12 9 -7 -2 -12 3 -10 11 2 9 -3 11 -14 7 -10 -4 -22 1 -31 11 -8 10 -12 12
-8 6 4 -9 1 -11 -9 -7 -9 3 -16 13 -16 21 0 11 -4 13 -12 5 -13 -10 -42 9 -32
22 2 3 -1 2 -8 -3 -7 -7 -17 -2 -31 15 -11 14 -25 23 -32 20 -7 -2 -18 1 -25
7 -10 9 -11 9 -5 -2 5 -9 4 -12 -3 -7 -7 4 -12 15 -12 24 0 12 -3 13 -12 4
-13 -13 -32 -16 -24 -4 2 4 1 14 -5 22 -6 10 -9 11 -9 3 0 -7 -5 -13 -11 -13
-5 0 -7 5 -3 12 5 8 2 9 -10 5 -9 -4 -14 -3 -11 2 3 5 1 12 -4 15 -5 4 -13 1
-17 -6 -5 -7 -10 -3 -17 13 -5 14 -11 19 -14 11 -3 -8 -11 -5 -25 10 -11 13
-17 17 -13 11 4 -9 1 -11 -9 -7 -9 3 -16 14 -16 23 0 14 -2 14 -10 1 -6 -10
-10 -11 -10 -2 0 6 -5 12 -11 12 -16 0 -39 26 -31 36 4 5 -1 3 -10 -4 -14 -11
-18 -10 -28 8 -9 17 -14 19 -26 9 -11 -9 -14 -8 -14 4 0 8 -7 18 -16 21 -10 4
-13 2 -9 -7 4 -6 0 -4 -8 5 -8 10 -17 15 -20 11 -4 -3 -7 -1 -7 5 0 7 -7 12
-16 12 -8 0 -12 5 -9 10 3 6 4 10 1 10 -3 0 -8 -5 -11 -10z m499 -258 c3 -5
-1 -9 -9 -9 -8 0 -15 4 -15 9 0 4 4 8 9 8 6 0 12 -4 15 -8z m-1149 -642 c-3
-5 -11 -10 -16 -10 -6 0 -7 5 -4 10 3 6 11 10 16 10 6 0 7 -4 4 -10z"/>
<path d="M350 7743 c0 -7 -7 -13 -16 -13 -9 0 -12 -5 -8 -12 5 -9 3 -9 -9 1
-14 11 -18 11 -23 -3 -4 -10 -13 -15 -21 -12 -8 3 -11 1 -8 -4 3 -6 -4 -10
-15 -10 -16 0 -20 -4 -16 -15 4 -11 0 -15 -12 -13 -12 2 -16 -3 -14 -16 3 -18
2 -18 -14 -5 -16 12 -17 12 -11 -3 4 -12 -5 -25 -31 -44 -35 -26 -36 -26 -17
-3 l20 24 -22 -19 c-18 -15 -20 -22 -11 -33 6 -8 7 -13 2 -12 -21 4 -35 -2
-29 -11 3 -5 1 -10 -5 -10 -6 0 -8 -4 -5 -10 3 -5 1 -10 -5 -10 -6 0 -9 -4 -6
-9 3 -5 -2 -12 -11 -15 -15 -6 -15 -8 -3 -16 10 -7 11 -10 3 -10 -7 0 -13 -7
-13 -16 0 -10 -6 -14 -14 -11 -10 4 -13 1 -9 -9 3 -8 0 -21 -7 -29 -10 -12
-10 -15 1 -15 11 -1 11 -3 -1 -9 -13 -8 -14 -42 -10 -246 3 -143 1 -240 -4
-246 -6 -6 -5 -9 3 -9 8 0 11 -6 7 -15 -3 -9 1 -18 10 -22 8 -3 13 -12 10 -19
-3 -8 -1 -14 4 -14 6 0 10 -8 10 -17 0 -16 2 -16 11 -3 9 12 10 12 5 -4 -4
-11 -1 -23 6 -27 13 -8 14 -12 17 -43 0 -8 10 -18 21 -21 11 -3 20 -13 20 -21
0 -8 6 -14 13 -14 8 0 7 -4 -3 -11 -12 -8 -9 -9 9 -4 20 6 23 4 18 -9 -4 -10
-3 -14 3 -11 11 7 32 -29 22 -40 -4 -5 -1 -5 6 -1 7 4 10 13 6 19 -3 7 1 4 9
-5 8 -10 20 -18 28 -18 10 0 11 -2 2 -8 -8 -5 -3 -11 13 -19 23 -11 24 -10 12
5 -9 12 -5 11 12 -3 14 -11 28 -24 32 -30 5 -6 8 -4 8 5 1 9 6 6 16 -10 11
-18 14 -20 10 -5 -6 19 -5 19 8 3 12 -17 52 -18 575 -18 408 0 561 -3 561 -11
0 -8 4 -8 14 0 19 16 23 6 22 -61 -1 -32 3 -58 7 -58 5 0 5 -6 1 -12 -5 -7 -7
-27 -5 -45 l3 -33 -501 0 -501 0 0 40 0 39 -240 3 c-155 2 -240 -1 -240 -7 0
-5 -4 -4 -9 3 -6 10 -10 10 -21 -2 -17 -21 -14 -227 3 -238 7 -4 8 -8 2 -8 -5
0 -2 -5 7 -10 10 -6 15 -19 13 -30 -2 -11 0 -18 5 -15 5 3 11 1 15 -5 3 -5 1
-10 -4 -10 -20 0 -11 -18 11 -23 19 -5 20 -8 7 -23 -9 -12 -10 -15 -2 -10 9 4
13 1 13 -9 0 -12 5 -15 16 -11 14 5 15 4 4 -9 -11 -13 -9 -15 10 -15 13 0 20
-3 16 -7 -3 -4 4 -13 16 -21 18 -10 19 -12 3 -7 -16 5 -16 2 5 -17 14 -13 27
-20 28 -15 2 4 8 7 13 7 6 0 6 -7 0 -18 -7 -14 -6 -19 4 -19 8 0 11 5 8 10 -3
6 -1 7 5 3 7 -4 12 -14 12 -23 0 -12 3 -13 13 -4 17 14 28 4 19 -17 -5 -15 -4
-15 14 -2 10 8 16 11 12 6 -8 -10 14 -36 25 -29 4 3 19 -3 32 -11 16 -11 25
-12 25 -5 0 8 4 8 13 1 16 -14 49 -18 64 -9 7 5 13 5 13 0 0 -4 275 -7 612 -5
467 2 615 5 627 15 8 6 12 7 8 1 -3 -6 0 -11 8 -11 8 0 13 2 11 5 -8 7 18 30
27 25 5 -3 15 3 22 13 11 14 14 15 15 5 0 -15 14 -6 16 10 3 22 5 23 14 9 8
-13 10 -12 10 3 0 9 6 17 13 17 19 0 77 59 78 79 0 10 2 11 6 4 2 -7 10 -13
15 -13 6 0 8 3 5 7 -4 3 1 16 10 27 17 20 17 20 -2 7 -11 -8 -2 2 20 22 22 20
34 36 28 37 -7 0 -13 -4 -13 -10 0 -5 -5 -10 -12 -10 -6 0 -1 11 11 24 13 14
20 29 17 35 -5 7 -1 8 10 4 13 -5 16 -3 11 10 -3 9 -2 17 4 17 6 0 8 4 4 9 -3
5 -1 12 4 16 6 3 10 109 11 257 0 138 3 255 6 259 3 5 -3 9 -12 9 -14 0 -15 3
-6 12 16 16 15 26 -4 30 -10 2 -18 15 -20 33 -2 16 -8 31 -14 33 -5 2 -10 12
-10 22 0 11 -9 24 -21 30 -11 7 -18 18 -15 25 2 7 -2 16 -10 19 -10 4 -13 2
-8 -7 5 -7 0 -6 -10 3 -10 8 -13 16 -8 18 6 2 4 11 -6 21 -13 13 -20 15 -31 7
-12 -9 -12 -7 -2 12 7 14 8 22 1 22 -5 0 -10 -6 -10 -12 -1 -7 -7 -2 -15 12
-7 14 -16 24 -19 23 -18 -8 -28 -2 -17 10 8 11 4 13 -21 9 -20 -3 -29 -1 -24
6 4 6 -3 16 -15 22 -16 9 -20 9 -14 0 5 -8 0 -7 -14 2 -12 7 -21 17 -21 22 0
4 -6 4 -13 -2 -8 -7 -18 -6 -31 4 -14 10 -23 11 -33 3 -7 -6 -13 -8 -13 -3 0
5 -239 8 -545 6 l-545 -2 0 110 0 110 500 0 500 0 0 -40 0 -40 260 0 260 0 0
115 c0 85 -3 115 -12 115 -9 0 -8 4 2 10 10 6 11 10 3 10 -7 0 -13 7 -13 15 0
8 -4 15 -10 15 -5 0 -10 7 -10 15 0 8 -6 15 -12 15 -10 0 -10 2 0 9 11 7 11 9
-1 14 -10 4 -14 16 -13 31 3 20 0 24 -9 16 -17 -14 -27 0 -12 18 9 13 9 14 0
8 -8 -4 -13 -2 -13 4 0 6 -5 8 -12 4 -8 -5 -9 -2 -5 10 5 13 3 17 -7 13 -10
-4 -13 -1 -9 9 3 8 2 14 -3 13 -5 -1 -17 1 -27 6 -14 6 -15 10 -7 15 9 5 6 10
-9 15 -11 3 -21 11 -21 16 0 5 -6 8 -12 6 -7 -1 -12 4 -10 11 2 10 -4 11 -19
7 -18 -6 -21 -4 -16 9 4 9 3 15 -1 15 -21 -3 -32 2 -26 14 5 9 4 9 -6 0 -10
-10 -20 -8 -43 9 -18 13 -27 16 -22 7 7 -12 6 -12 -7 -1 -22 18 -1318 17
-1318 -1 0 -8 -4 -7 -10 3 -6 10 -10 11 -10 3z m1560 -1837 c0 -2 -8 -10 -17
-17 -16 -13 -17 -12 -4 4 13 16 21 21 21 13z"/>
<path d="M2679 7741 c-2 -6 -17 -12 -33 -13 -19 -2 -37 -14 -54 -36 -14 -18
-31 -31 -38 -28 -7 3 -18 -3 -26 -12 -8 -10 -8 -13 -1 -9 6 4 15 3 18 -3 4 -6
3 -10 -2 -9 -21 4 -34 -2 -27 -13 5 -7 3 -8 -5 -4 -8 5 -14 0 -18 -13 -3 -11
-9 -19 -13 -16 -5 3 -12 -4 -15 -15 -6 -18 -9 -19 -22 -8 -14 11 -15 10 -8
-11 5 -16 4 -21 -4 -17 -6 4 -11 2 -11 -3 0 -6 -5 -10 -12 -8 -7 1 -13 -4 -14
-10 -1 -7 -2 -18 -3 -24 0 -5 -5 -7 -11 -4 -5 3 -10 1 -10 -4 0 -6 6 -11 13
-11 6 0 1 -10 -13 -21 -14 -11 -18 -17 -10 -13 12 6 13 5 3 -8 -7 -8 -10 -18
-6 -21 3 -4 2 -7 -4 -7 -6 0 -9 -8 -6 -19 3 -10 0 -22 -6 -25 -12 -8 -16
-1206 -3 -1206 4 0 9 -14 10 -32 2 -18 6 -35 10 -38 4 -3 9 -14 10 -25 2 -11
8 -21 13 -23 5 -2 9 -10 9 -18 0 -8 6 -14 13 -14 9 0 9 -2 0 -8 -9 -6 -7 -12
7 -22 11 -8 20 -23 20 -33 0 -14 5 -17 17 -13 10 4 14 4 11 0 -8 -8 14 -34 25
-27 11 7 8 -12 -4 -24 -9 -9 -7 -10 10 -6 19 5 26 -4 22 -29 0 -4 11 -3 25 2
17 7 23 7 19 0 -3 -6 -3 -15 1 -21 4 -8 9 -7 15 2 6 10 9 11 9 2 0 -7 6 -13
14 -13 8 0 16 -4 18 -9 2 -5 12 -11 23 -13 22 -3 45 -20 39 -29 -2 -3 3 -6 11
-6 8 0 12 4 9 9 -3 4 0 8 5 8 6 0 11 -7 11 -16 0 -8 4 -13 9 -10 5 3 306 6
669 6 l660 1 6 22 c5 18 8 19 15 7 8 -12 12 -10 20 10 5 14 10 20 10 13 1 -8
7 -8 25 0 13 7 22 16 19 21 -4 5 1 7 11 3 10 -4 15 -3 11 3 -3 6 4 14 17 19
13 5 30 17 38 27 14 17 14 17 -15 0 l-30 -18 30 23 c16 13 30 22 31 19 0 -3 8
1 18 9 13 11 14 16 4 29 -11 13 -10 14 10 8 17 -6 21 -4 16 8 -4 11 -1 16 10
16 9 0 16 5 16 11 0 5 -5 7 -12 3 -7 -5 -8 -3 -4 5 5 7 15 10 23 6 13 -4 14
-3 3 10 -8 10 -9 15 -1 15 6 0 11 7 11 16 0 8 4 13 9 9 5 -3 13 0 17 6 4 8 3
9 -4 5 -7 -4 -12 -1 -12 9 0 9 4 14 9 11 5 -3 8 2 7 12 0 9 5 16 12 14 8 -1
11 2 7 8 -3 6 -12 7 -18 4 -8 -5 -8 -3 1 7 9 10 12 151 12 636 0 492 -3 623
-12 623 -9 0 -8 4 2 10 8 5 11 10 5 10 -5 0 -15 11 -22 25 -6 14 -7 23 -2 19
17 -10 9 5 -13 26 -20 18 -20 20 -4 14 19 -7 19 -7 0 13 -10 11 -23 18 -27 15
-5 -2 -4 6 3 18 8 15 8 20 1 16 -6 -4 -11 -2 -11 4 0 6 -13 16 -30 21 -16 6
-30 15 -30 21 0 5 5 6 12 2 7 -4 8 -3 4 4 -4 6 -13 9 -20 6 -8 -3 -17 0 -22 7
-5 8 -3 10 7 5 8 -4 5 0 -5 8 -11 9 -23 16 -27 16 -4 0 -6 8 -5 18 1 12 -6 17
-26 17 -23 -1 -25 2 -16 18 9 17 7 17 -12 7 -15 -8 -20 -8 -16 -1 4 6 0 11 -9
11 -10 0 -13 5 -9 13 5 8 2 7 -10 -2 -15 -13 -18 -12 -23 8 -4 17 -8 19 -14 9
-7 -10 -9 -10 -9 2 0 13 -1 13 -10 0 -6 -10 -10 -11 -10 -2 0 9 -138 12 -655
12 -517 0 -655 -3 -655 -12 0 -10 -3 -9 -9 1 -6 9 -10 9 -12 2z m-49 -30 c0
-5 -7 -12 -16 -15 -14 -5 -15 -4 -4 9 14 17 20 19 20 6z m1220 -961 l0 -480
-490 0 -490 0 0 480 0 480 490 0 490 0 0 -480z m410 -826 c0 -8 -19 -13 -24
-6 -3 5 1 9 9 9 8 0 15 -2 15 -3z"/>
<path d="M4566 7741 c-3 -4 1 -17 8 -27 10 -13 11 -23 4 -31 -8 -10 -6 -13 7
-13 11 0 15 -5 11 -15 -4 -10 2 -19 16 -24 15 -5 18 -10 9 -15 -9 -6 -6 -13
10 -27 12 -10 17 -19 11 -19 -7 0 -12 -5 -12 -11 0 -5 4 -7 10 -4 5 3 15 -5
21 -19 7 -14 16 -23 20 -20 5 3 6 -1 3 -9 -3 -8 2 -22 11 -31 9 -9 13 -16 9
-16 -4 0 1 -7 12 -16 10 -8 13 -13 7 -9 -18 9 -16 -1 4 -21 9 -9 19 -26 20
-38 2 -11 8 -23 14 -25 7 -2 6 -7 -2 -12 -11 -7 -11 -9 2 -9 9 0 25 -12 35
-27 13 -20 13 -25 3 -18 -8 6 -7 3 3 -6 9 -9 14 -19 11 -23 -4 -3 -1 -6 5 -6
7 0 12 -7 12 -15 0 -8 6 -15 13 -15 9 0 8 -3 -2 -9 -10 -6 -10 -10 -1 -13 6
-2 13 -15 13 -30 1 -14 7 -24 13 -21 6 2 17 -4 25 -13 8 -10 9 -15 2 -11 -6 4
-15 3 -18 -3 -4 -6 -3 -10 2 -9 20 3 33 -2 31 -13 -2 -7 2 -12 8 -11 6 1 11
-4 11 -12 0 -8 -4 -12 -9 -9 -4 3 -8 1 -8 -4 0 -5 9 -12 20 -15 13 -3 18 -10
14 -21 -3 -9 -1 -16 6 -16 6 0 8 -4 5 -10 -3 -5 -1 -10 4 -10 6 0 11 -9 11
-20 0 -11 4 -20 10 -20 5 0 9 -6 7 -12 -1 -7 4 -12 12 -10 12 3 12 0 1 -13
-11 -13 -10 -14 6 -8 17 6 17 5 5 -10 -12 -15 -12 -17 3 -11 15 6 21 -9 17
-43 -1 -7 8 -13 20 -13 16 0 19 -3 11 -13 -7 -8 -6 -18 4 -31 7 -10 11 -23 8
-28 -3 -5 0 -7 8 -6 7 2 13 -5 13 -14 0 -10 7 -23 15 -30 12 -11 12 -10 0 7
-14 18 -14 19 3 6 9 -7 17 -20 17 -27 0 -8 5 -14 11 -14 8 0 7 -6 -2 -17 -8
-9 -9 -14 -4 -11 6 3 15 0 22 -7 10 -11 10 -15 0 -18 -7 -3 -4 -8 8 -13 11 -5
21 -15 23 -22 1 -8 -2 -11 -7 -8 -5 4 -13 2 -16 -4 -4 -6 -3 -9 2 -8 4 1 19
-4 31 -11 16 -9 22 -19 19 -32 -3 -10 -1 -17 4 -13 5 3 9 0 9 -6 0 -6 5 -8 10
-5 6 3 10 1 10 -4 0 -6 -4 -11 -10 -11 -5 0 -10 -5 -10 -11 0 -5 4 -8 9 -5 5
3 14 -1 20 -8 9 -11 9 -16 0 -22 -8 -5 -9 -3 -4 6 6 9 4 11 -4 6 -7 -5 -9 -11
-6 -15 6 -6 10 -7 38 -10 8 -1 7 -4 -3 -11 -11 -7 -11 -10 -2 -10 7 0 11 -4 7
-9 -8 -13 24 -42 38 -35 8 5 8 2 0 -7 -15 -15 -17 -33 -4 -25 5 3 14 -1 20 -8
8 -10 9 -16 1 -21 -16 -10 -2 -25 18 -18 15 6 15 4 4 -9 -11 -14 -10 -18 8
-28 18 -10 19 -14 8 -28 -10 -12 -10 -14 0 -8 11 6 16 -4 13 -26 0 -4 13 -18
30 -32 17 -14 25 -26 19 -26 -7 0 -2 -8 11 -18 17 -15 19 -21 9 -27 -9 -6 -11
-4 -5 5 5 9 4 11 -4 6 -6 -4 -9 -12 -5 -17 3 -5 9 -7 14 -4 4 3 14 -3 21 -12
10 -12 10 -14 2 -9 -7 4 -13 3 -13 -2 0 -6 7 -13 16 -16 10 -4 13 -13 9 -26
-4 -14 -2 -20 7 -18 7 2 12 -5 12 -15 -2 -14 3 -16 19 -11 19 6 20 5 9 -9 -11
-13 -10 -17 8 -27 18 -10 19 -14 8 -28 -7 -9 -9 -14 -4 -10 4 4 14 1 21 -5 10
-9 10 -15 1 -26 -6 -8 -6 -12 -1 -9 6 3 16 0 23 -8 10 -11 10 -14 0 -14 -8 -1
-7 -5 5 -14 11 -8 15 -20 11 -32 -5 -16 -4 -16 5 -4 8 11 11 12 11 2 0 -8 5
-10 12 -6 7 5 9 2 5 -8 -5 -14 21 -16 230 -17 217 -2 235 -1 229 15 -5 14 -4
15 8 5 13 -11 15 -9 11 9 -3 15 0 20 9 17 7 -3 13 1 13 9 0 7 -5 10 -10 7 -6
-4 -7 -1 -3 6 5 7 15 10 23 6 13 -4 14 -3 3 10 -9 11 -9 15 -1 15 7 0 9 5 6
10 -3 6 -2 10 4 10 5 0 11 -3 14 -7 2 -5 3 -3 1 3 -1 7 5 22 13 35 13 17 13
21 2 15 -8 -4 -3 2 11 14 14 12 18 18 11 14 -9 -5 -6 5 7 23 16 23 19 33 10
36 -8 3 -6 6 5 6 9 1 17 7 17 15 0 7 6 19 14 25 15 12 51 83 47 90 -2 2 5 9
14 14 14 8 15 11 4 18 -10 6 -11 9 -1 9 6 0 12 7 12 16 0 10 5 14 15 10 13 -5
14 -2 4 17 -12 21 -11 21 6 7 10 -8 16 -10 12 -4 -4 7 0 14 8 18 8 3 15 11 15
18 0 9 -3 8 -10 -2 -5 -8 -10 -10 -10 -4 0 5 9 20 20 32 12 12 16 22 10 22 -5
0 -10 5 -10 11 0 5 5 7 10 4 6 -3 10 -1 10 5 0 6 4 8 10 5 6 -3 7 1 4 9 -3 9
-1 16 6 16 6 0 9 4 6 9 -9 14 5 42 17 34 6 -4 8 0 4 10 -4 11 -1 17 7 17 12 0
23 16 27 38 0 4 6 13 12 21 10 12 9 13 -3 7 -8 -4 -4 2 10 13 17 14 20 21 10
21 -10 0 -7 6 9 19 18 14 20 20 10 24 -10 3 -6 8 11 15 14 6 19 11 12 11 -10
1 -10 5 0 20 7 11 16 17 20 15 4 -3 8 4 8 16 0 12 4 18 10 15 6 -3 7 1 4 9 -4
11 0 16 11 16 14 0 15 3 5 15 -10 12 -9 15 4 15 10 0 15 4 12 9 -9 14 5 42 17
34 6 -4 8 2 5 15 -4 12 -2 20 3 16 5 -3 9 0 9 6 0 17 26 40 36 32 5 -4 2 1 -5
11 -12 15 -11 17 3 17 10 0 15 4 12 9 -4 5 0 12 6 14 10 4 10 6 1 6 -7 1 -13
6 -13 12 0 6 7 8 16 5 12 -4 15 -2 10 9 -3 8 0 15 6 15 6 0 8 3 5 7 -4 3 1 12
11 19 14 11 14 13 2 14 -10 0 -7 7 10 21 14 11 19 18 13 14 -8 -3 -6 6 4 24
10 16 21 27 26 24 5 -3 6 5 2 17 -4 12 -3 20 1 17 5 -3 15 1 22 9 10 11 10 14
0 14 -7 0 -2 9 11 19 18 14 21 20 10 24 -10 4 -9 6 4 6 10 1 16 5 13 10 -8 12
4 42 14 36 10 -6 31 51 22 60 -4 3 2 3 12 -1 13 -5 17 -4 12 4 -3 6 -1 14 5
17 5 4 8 14 5 22 -4 9 -2 11 6 7 8 -5 9 -2 5 9 -4 10 -2 16 4 14 6 -1 15 8 20
21 6 17 6 21 -4 17 -6 -4 -2 2 11 12 18 15 20 21 10 31 -11 11 -10 13 2 10 9
-2 14 4 14 14 -1 10 4 14 12 11 9 -3 12 2 9 17 -3 15 0 20 10 17 7 -3 16 1 19
9 3 8 1 14 -5 14 -6 0 -7 5 -4 10 4 6 11 7 17 4 7 -5 9 0 5 15 -3 15 0 24 9
28 8 3 13 11 10 19 -3 7 3 18 12 26 15 12 16 11 3 -4 -8 -11 -9 -18 -3 -18 6
0 13 10 17 23 12 41 28 66 39 60 6 -4 5 1 -3 10 -12 15 -10 18 10 26 13 5 18
10 12 10 -7 1 -13 8 -13 16 0 13 -39 15 -290 15 -251 0 -291 -2 -296 -15 -5
-11 -10 -13 -19 -5 -9 8 -12 4 -10 -15 2 -14 -1 -25 -6 -25 -6 0 -7 -4 -4 -10
3 -5 1 -10 -5 -10 -6 0 -9 -4 -6 -9 3 -5 -2 -12 -11 -15 -15 -6 -15 -8 -3 -16
10 -7 11 -10 3 -10 -7 0 -13 -7 -13 -16 0 -10 -6 -14 -15 -10 -8 3 -14 2 -13
-2 1 -4 -4 -18 -11 -31 -11 -19 -11 -22 1 -16 7 3 4 -1 -6 -9 -11 -9 -14 -16
-7 -16 7 0 10 -4 6 -10 -3 -5 -13 -6 -22 -3 -12 5 -15 2 -10 -10 4 -10 2 -17
-5 -17 -6 0 -8 -3 -5 -7 4 -3 1 -13 -6 -21 -9 -13 -9 -14 1 -8 6 4 12 5 12 2
0 -3 -12 -12 -27 -20 -24 -13 -25 -15 -8 -16 17 0 17 -2 5 -10 -8 -5 -11 -10
-7 -10 4 0 2 -6 -5 -14 -7 -8 -16 -12 -19 -10 -4 2 -10 -3 -13 -12 -3 -8 -2
-12 4 -9 6 3 10 2 10 -3 0 -5 -10 -13 -22 -17 -14 -3 -18 -8 -11 -11 10 -4 10
-8 0 -19 -7 -7 -15 -11 -19 -8 -5 2 -8 -1 -8 -6 0 -6 5 -11 11 -11 6 0 3 -7
-5 -16 -9 -8 -14 -19 -11 -24 3 -5 0 -12 -6 -16 -7 -4 -9 -3 -5 4 3 6 2 13 -2
16 -5 3 -9 -5 -10 -17 0 -30 -13 -67 -23 -67 -5 0 -5 -7 -2 -17 4 -11 3 -14
-5 -9 -7 4 -12 2 -12 -4 0 -6 -4 -9 -8 -6 -5 3 -9 -1 -9 -9 0 -8 5 -11 11 -8
6 3 2 -3 -9 -14 -11 -11 -24 -18 -29 -15 -5 3 -6 0 -2 -6 4 -6 -1 -24 -11 -39
-14 -21 -15 -25 -3 -19 8 4 4 -2 -10 -14 -14 -12 -20 -19 -13 -16 20 10 -19
-57 -44 -77 -13 -10 -20 -23 -17 -28 3 -6 -2 -17 -12 -24 -15 -11 -16 -14 -4
-15 10 0 7 -7 -10 -21 -14 -11 -19 -18 -13 -14 9 4 11 1 7 -9 -3 -9 -11 -13
-17 -9 -6 4 -8 0 -4 -11 4 -10 1 -19 -8 -23 -13 -4 -13 -8 -3 -21 10 -12 10
-14 1 -8 -12 6 -17 -4 -14 -26 0 -4 -8 -9 -18 -13 -11 -3 -22 -13 -25 -22 -5
-12 -3 -13 7 -7 7 5 1 -1 -13 -13 -14 -13 -19 -23 -12 -23 6 0 12 -5 12 -11 0
-5 -4 -7 -10 -4 -5 3 -10 1 -10 -5 0 -6 -4 -8 -10 -5 -6 3 -7 -1 -4 -9 3 -9 1
-16 -6 -16 -6 0 -9 -4 -6 -9 9 -14 -5 -42 -17 -34 -6 4 -8 0 -4 -10 3 -10 2
-17 -3 -17 -5 0 -7 -7 -4 -15 5 -11 2 -13 -10 -9 -9 4 -18 0 -21 -8 -3 -8 -12
-15 -19 -15 -8 0 -12 6 -9 14 3 7 0 13 -7 13 -6 0 -8 5 -5 10 3 6 1 10 -4 10
-6 0 -11 9 -11 20 0 11 -4 20 -10 20 -5 0 -10 7 -10 16 0 9 -5 12 -12 8 -9 -5
-9 -3 1 9 11 14 11 18 -3 23 -10 4 -15 13 -12 21 3 8 1 11 -4 8 -6 -3 -10 1
-10 9 0 9 -4 16 -10 16 -5 0 -10 7 -10 15 0 8 -4 15 -10 15 -5 0 -10 7 -10 16
0 8 -7 22 -15 31 -9 9 -13 23 -10 34 5 13 2 19 -7 17 -7 -2 -12 5 -12 15 1 9
-2 17 -7 17 -5 0 -9 7 -9 15 0 8 -5 15 -11 15 -5 0 -7 5 -4 10 3 6 1 10 -5 10
-6 0 -8 5 -4 12 4 6 3 8 -3 5 -6 -4 -16 0 -22 7 -9 11 -9 16 0 22 9 5 5 10
-12 17 -15 6 -19 11 -11 14 10 4 7 9 -8 20 -16 11 -18 18 -10 28 8 10 7 14 -7
17 -10 2 -18 12 -18 23 0 11 -6 19 -13 17 -10 -2 -10 2 -1 20 12 22 11 22 -6
8 -11 -9 -16 -10 -11 -2 4 7 2 12 -6 12 -9 0 -9 3 2 10 13 8 12 10 -3 10 -10
0 -15 5 -12 10 3 6 1 10 -4 10 -6 0 -11 7 -11 15 0 8 -6 15 -12 15 -9 0 -8 4
2 10 10 6 11 10 3 10 -7 0 -13 7 -13 15 0 8 -4 15 -10 15 -5 0 -10 6 -10 14 0
8 -6 17 -12 19 -10 4 -10 6 1 6 8 1 5 9 -10 22 -13 11 -19 18 -12 15 6 -4 15
-2 18 4 4 6 1 9 -7 8 -7 -2 -12 2 -11 9 2 8 -4 10 -15 6 -15 -6 -16 -5 -2 12
9 11 10 16 3 11 -8 -4 -13 -1 -13 8 0 9 -4 16 -10 16 -5 0 -10 7 -10 16 0 9
-5 12 -12 8 -8 -5 -8 -1 2 12 8 10 10 16 6 12 -5 -4 -15 -3 -23 3 -10 9 -10
15 -2 25 9 11 7 14 -12 14 -19 0 -21 2 -9 10 11 7 11 10 2 10 -7 0 -11 4 -8 9
3 5 0 11 -8 14 -8 3 -13 16 -12 31 2 14 -1 23 -6 20 -5 -3 -15 0 -24 6 -12 10
-12 16 -2 28 7 9 9 13 3 10 -5 -3 -16 0 -23 8 -10 11 -10 14 0 14 11 0 11 2 0
9 -7 4 -14 17 -15 29 0 11 -6 20 -12 19 -5 -1 -9 4 -7 11 1 6 -4 12 -10 12 -9
0 -8 4 2 10 13 8 12 10 -2 10 -17 0 -23 12 -19 34 1 5 -5 4 -13 -3 -12 -10
-14 -9 -9 11 4 18 3 20 -6 8 -7 -10 -11 -11 -11 -2 0 9 -64 12 -284 12 -157 0
-287 -4 -290 -9z m1578 -856 c-4 -8 -11 -15 -16 -15 -6 0 -5 6 2 15 7 8 14 15
16 15 2 0 1 -7 -2 -15z m347 -438 c-10 -9 -11 -8 -5 6 3 10 9 15 12 12 3 -3 0
-11 -7 -18z m-1067 -273 c5 -14 4 -15 -9 -4 -17 14 -19 20 -6 20 5 0 12 -7 15
-16z"/>
<path d="M7430 6740 l0 -1010 270 0 270 0 0 1010 0 1010 -270 0 -270 0 0
-1010z"/>
<path d="M8550 7737 c0 -16 -40 -45 -40 -30 0 4 -4 4 -8 -2 -10 -14 -55 -39
-48 -26 4 7 1 9 -8 5 -8 -3 -13 -14 -11 -25 3 -16 1 -17 -14 -9 -15 8 -18 6
-17 -13 1 -13 -4 -21 -12 -19 -8 1 -16 -7 -19 -18 -5 -17 -8 -18 -21 -8 -14
12 -14 10 -2 -12 12 -23 12 -24 -3 -11 -15 11 -17 11 -17 -2 0 -9 -5 -19 -12
-23 -7 -5 -8 -3 -3 6 5 8 4 11 -3 6 -6 -3 -9 -16 -7 -27 3 -15 0 -19 -10 -16
-7 3 -16 -1 -19 -9 -3 -8 -1 -14 5 -14 6 0 7 -5 4 -10 -4 -6 -11 -7 -17 -4 -7
5 -9 0 -5 -15 3 -15 0 -24 -9 -28 -8 -3 -13 -12 -10 -19 3 -8 1 -14 -4 -14 -6
0 -10 -237 -10 -650 0 -513 3 -650 13 -650 9 0 9 -2 -1 -9 -11 -7 -11 -9 1
-14 10 -4 14 -16 13 -31 -3 -20 0 -24 9 -16 10 8 15 8 21 -1 4 -8 3 -9 -4 -5
-17 10 -15 -3 3 -21 8 -8 13 -19 10 -24 -4 -5 0 -9 8 -9 8 0 20 -13 26 -30 5
-16 13 -30 16 -30 3 0 4 4 1 8 -3 5 1 9 8 9 8 0 11 -8 8 -19 -3 -12 1 -18 12
-18 10 0 14 -5 10 -11 -4 -7 -1 -10 7 -7 8 3 25 -12 41 -36 16 -23 28 -36 28
-30 0 5 -3 14 -7 20 -5 5 0 1 9 -9 10 -10 22 -15 28 -12 7 4 14 -2 17 -15 4
-16 8 -18 14 -8 7 10 9 10 9 1 0 -7 7 -13 15 -13 8 0 15 -5 15 -11 0 -8 5 -8
15 1 10 9 15 9 15 1 0 -8 179 -11 660 -11 479 0 660 3 660 11 0 7 10 9 25 7
22 -5 23 -3 13 10 -7 9 -8 13 -2 9 6 -3 22 0 37 8 14 7 28 11 31 7 3 -3 6 3 6
14 0 16 2 17 10 4 9 -14 14 -7 11 13 -1 4 7 7 16 5 11 -2 17 2 15 10 -1 8 2
11 8 7 5 -3 10 1 10 11 0 14 2 15 18 3 9 -7 14 -9 10 -5 -4 5 -2 16 5 24 10
13 9 14 -2 7 -10 -5 -12 -4 -7 3 4 7 13 12 20 12 8 0 20 8 27 17 12 14 12 16
-1 9 -8 -4 -5 1 8 11 20 16 28 33 31 66 1 4 6 6 13 5 6 -2 12 10 13 25 1 16 8
33 16 38 12 7 12 9 -1 9 -12 0 -12 2 -2 9 8 5 15 20 15 34 1 14 5 23 9 21 4
-3 8 265 8 596 -1 605 -2 628 -35 652 -6 5 -5 8 3 8 9 0 8 7 -4 25 -9 14 -13
25 -9 25 3 0 -1 7 -10 16 -9 9 -14 23 -11 30 3 8 0 13 -7 11 -7 -1 -11 4 -10
10 2 7 -8 20 -22 29 -14 9 -22 21 -18 28 4 6 -2 4 -12 -4 -11 -9 -16 -10 -11
-2 4 6 2 12 -3 12 -6 0 -11 10 -12 23 -1 21 -1 21 -9 -3 -8 -24 -8 -24 -9 -2
-1 23 -41 71 -41 50 -1 -7 -6 -3 -13 10 -7 12 -16 20 -19 16 -4 -3 -14 6 -23
20 -10 14 -21 23 -26 21 -5 -3 -23 1 -40 10 -23 12 -29 13 -24 3 6 -10 5 -11
-6 0 -17 16 -1304 18 -1314 2 -5 -8 -11 -7 -21 1 -11 9 -14 8 -14 -4z m1620
-197 c0 -5 -2 -10 -4 -10 -3 0 -8 5 -11 10 -3 6 -1 10 4 10 6 0 11 -4 11 -10z
m-440 -790 l0 -480 -490 0 -490 0 0 480 0 480 490 0 490 0 0 -480z"/>
<path d="M11121 7623 c-10 -26 -10 -27 4 -9 8 11 15 23 15 28 0 15 -7 8 -19
-19z"/>
<path d="M163 7625 c0 -8 4 -12 9 -9 5 3 6 10 3 15 -9 13 -12 11 -12 -6z"/>
<path d="M10823 7213 c4 -3 1 -13 -6 -22 -11 -14 -10 -14 5 -2 16 12 16 31 1
31 -4 0 -3 -3 0 -7z"/>
<path d="M6146 6933 c-6 -14 -5 -15 5 -6 7 7 10 15 7 18 -3 3 -9 -2 -12 -12z"/>
<path d="M10547 6610 c-3 -11 -1 -17 4 -14 13 8 40 -16 33 -28 -3 -5 5 -19 18
-31 12 -12 23 -29 23 -37 0 -8 7 -14 15 -12 12 3 13 1 3 -9 -16 -16 -17 -29
-2 -29 5 0 7 6 4 13 -4 6 1 3 9 -7 9 -11 16 -26 16 -33 0 -7 5 -13 11 -13 5 0
7 -4 4 -10 -3 -6 1 -7 10 -4 10 4 14 2 10 -8 -4 -9 4 -22 19 -32 16 -10 23
-22 20 -31 -4 -8 -1 -15 4 -15 6 0 9 -9 7 -21 -4 -17 -2 -19 11 -8 8 6 17 9
21 5 3 -3 1 -6 -7 -6 -10 0 -10 -3 0 -15 6 -8 8 -20 4 -26 -4 -8 -3 -9 5 -5
16 10 41 -12 34 -30 -3 -8 0 -14 7 -14 8 0 10 -8 7 -21 -5 -17 -3 -18 9 -8 8
6 17 9 21 5 3 -3 1 -6 -5 -6 -7 0 -12 -8 -12 -17 0 -15 2 -16 10 -3 8 12 10
10 10 -8 0 -13 4 -20 10 -17 6 3 10 -1 10 -10 0 -9 4 -13 10 -10 6 3 7 -1 4
-9 -3 -9 -1 -16 4 -16 6 0 14 -9 17 -20 4 -11 10 -18 15 -15 4 3 7 -3 6 -13 0
-10 5 -16 13 -14 12 3 12 1 0 -14 -9 -12 -9 -15 -1 -10 7 4 12 2 12 -4 0 -6 5
-8 12 -4 7 4 8 3 4 -5 -4 -7 2 -20 16 -32 13 -11 18 -18 11 -15 -6 4 -14 2
-18 -4 -3 -6 4 -10 18 -10 31 0 40 -10 24 -28 -9 -13 -9 -14 1 -8 7 4 12 1 12
-9 0 -9 3 -14 8 -12 4 3 14 -2 22 -11 13 -14 12 -15 -2 -9 -12 4 -15 2 -11 -8
3 -8 9 -12 14 -9 5 3 9 -2 9 -10 0 -9 5 -16 10 -16 6 0 10 -7 10 -16 0 -8 5
-12 10 -9 6 3 10 0 10 -9 0 -8 5 -16 10 -18 6 -2 12 -13 13 -26 0 -12 8 -22
16 -22 8 0 11 -3 8 -7 -4 -3 2 -12 13 -20 11 -8 20 -21 20 -29 0 -8 5 -14 11
-14 8 0 7 -6 -2 -16 -12 -15 -11 -16 8 -10 16 5 21 3 19 -11 0 -10 5 -17 12
-16 6 2 12 -1 12 -5 0 -4 -6 -14 -12 -21 -10 -11 -10 -13 0 -7 6 4 12 2 12 -4
0 -6 5 -8 10 -5 6 3 10 -1 10 -9 0 -9 5 -16 11 -16 8 0 7 -6 -2 -16 -12 -15
-11 -16 9 -10 12 4 22 4 21 -1 -5 -27 2 -45 16 -39 8 3 21 -4 30 -17 8 -12 15
-16 15 -8 0 7 6 11 13 8 14 -5 39 17 30 27 -4 3 -1 6 5 6 7 0 12 -6 12 -12 0
-7 10 -2 21 12 11 14 17 18 13 10 -6 -12 -5 -13 8 -3 8 7 19 9 23 5 5 -4 6 0
3 9 -4 9 -1 16 8 16 7 0 11 -5 8 -11 -3 -6 4 0 16 14 12 14 18 18 14 10 -7
-13 -5 -13 9 -1 9 7 17 10 17 6 0 -5 10 0 22 11 12 10 19 14 15 8 -3 -6 0 -11
8 -11 8 0 13 3 11 6 -2 3 2 12 10 18 10 10 15 10 20 1 5 -7 10 -4 15 10 5 14
14 20 24 16 10 -4 15 0 16 12 0 11 3 14 6 6 3 -9 13 -6 36 10 18 13 28 16 23
7 -4 -7 2 -3 14 11 12 14 19 19 15 13 -4 -8 -1 -11 9 -7 8 3 17 12 20 21 5 13
9 13 23 2 9 -8 14 -9 11 -4 -3 6 0 16 8 23 11 10 14 10 14 0 0 -8 3 -9 8 -3 4
6 16 17 26 25 18 13 19 13 12 0 -4 -8 2 -4 14 10 12 14 19 20 16 14 -3 -6 1
-11 8 -11 8 0 12 7 8 15 -3 10 -1 13 6 8 7 -4 12 -1 13 6 0 7 4 4 9 -7 5 -11
9 -14 9 -7 1 21 28 45 34 29 2 -7 9 -3 16 11 11 20 15 21 29 10 12 -10 14 -10
8 0 -6 11 11 17 37 13 4 0 7 3 7 9 0 5 7 7 15 4 11 -5 13 -2 9 10 -3 9 -2 16
4 16 6 0 13 -6 15 -12 4 -10 6 -10 6 0 1 7 6 10 11 7 6 -3 10 2 10 12 0 15 2
16 10 3 7 -12 11 -10 19 10 5 14 10 19 10 11 1 -11 4 -11 16 -1 8 7 21 10 29
7 10 -4 13 -1 9 9 -3 8 1 14 11 14 9 0 16 6 16 13 0 8 3 7 10 -3 8 -12 10 -12
16 3 3 9 10 14 15 11 5 -3 9 0 9 6 0 6 4 9 9 6 5 -3 12 1 15 10 5 14 9 14 23
3 14 -12 16 -12 8 0 -6 11 -3 13 13 9 15 -4 19 -2 15 8 -3 8 1 14 11 14 9 0
16 6 16 13 0 8 3 7 10 -3 8 -12 10 -12 16 3 3 9 10 14 15 11 5 -3 9 0 9 6 0 6
5 8 10 5 6 -3 10 -2 10 3 0 6 7 13 16 16 10 4 13 2 8 -7 -5 -8 -2 -7 9 2 9 7
17 10 17 5 0 -4 7 1 15 12 9 12 14 14 15 6 0 -7 5 -10 10 -7 6 4 8 11 4 16 -3
6 0 10 7 8 29 -3 50 1 44 10 -3 5 -1 12 5 16 5 3 10 1 10 -5 0 -6 5 -8 10 -5
6 4 8 11 4 16 -3 6 0 9 7 8 23 -4 49 12 42 25 -4 6 1 5 10 -3 16 -12 21 -8 18
12 -1 4 4 7 11 6 28 -3 49 1 43 10 -3 5 -1 12 5 16 5 3 10 1 10 -5 0 -6 5 -8
10 -5 6 4 7 11 4 17 -5 7 -1 9 9 5 11 -4 25 2 38 16 12 12 18 15 14 7 -7 -12
-6 -13 7 -3 8 7 18 10 21 6 4 -3 7 -1 7 5 0 7 7 9 17 5 12 -5 15 -2 10 9 -3
10 0 19 9 22 8 3 12 1 9 -4 -3 -6 1 -7 9 -4 9 3 16 14 17 23 0 11 2 12 6 3 4
-10 8 -10 19 -1 7 6 21 8 30 5 14 -5 15 -4 5 8 -10 12 -8 14 13 12 14 -2 23 1
20 5 -3 5 2 9 11 9 10 0 13 -5 9 -12 -4 -7 -3 -8 5 -4 6 4 9 11 6 16 -4 7 31
23 48 21 4 -1 7 3 7 8 0 6 9 8 19 6 14 -2 18 1 15 10 -4 10 0 13 15 10 12 -2
19 0 16 6 -4 5 0 9 9 9 8 0 17 6 19 13 4 10 6 10 6 0 1 -7 6 -13 12 -13 5 0 8
3 6 8 -3 4 1 13 9 20 11 10 14 10 14 0 0 -8 3 -9 8 -3 4 6 16 17 26 25 18 13
19 13 12 0 -4 -8 2 -4 14 10 12 14 19 20 16 13 -4 -7 1 -9 13 -6 11 3 22 12
26 21 5 14 7 14 15 2 8 -13 10 -13 10 1 0 9 7 20 16 23 10 4 13 2 9 -7 -4 -6
3 -1 15 13 12 14 19 19 15 13 -4 -9 -1 -11 9 -7 9 3 13 10 10 15 -3 5 2 6 10
3 10 -4 16 -1 16 7 0 11 3 11 10 -1 8 -13 10 -12 10 4 0 12 5 16 16 12 9 -4
13 -2 8 5 -4 7 -1 10 7 7 8 -3 23 2 33 11 11 9 16 10 12 4 -5 -9 -2 -11 8 -7
9 3 16 12 16 20 0 12 -57 14 -342 15 -189 1 -351 2 -360 2 -10 0 -18 3 -18 8
0 4 -187 8 -416 9 -278 0 -423 4 -436 11 -16 9 -19 8 -13 -3 6 -10 5 -11 -6 0
-10 9 -109 12 -426 12 -324 0 -413 3 -413 13 0 8 -4 7 -10 -3 -6 -10 -10 -11
-10 -2 0 9 -84 12 -384 12 -375 0 -384 0 -389 -20z"/>
<path d="M10710 6342 c0 -5 7 -9 15 -9 8 0 12 4 9 9 -3 4 -9 8 -15 8 -5 0 -9
-4 -9 -8z"/>
<path d="M11350 5420 c0 -5 5 -10 11 -10 5 0 7 5 4 10 -3 6 -8 10 -11 10 -2 0
-4 -4 -4 -10z"/>
</g>
</svg>
